<svg width="149" height="149" viewBox="0 0 149 149" fill="none" xmlns="http://www.w3.org/2000/svg">
<path d="M70.7152 2.25786C72.1718 -0.752626 76.46 -0.752635 77.9166 2.25785L83.2157 13.2102C84.3722 15.6004 87.4937 16.2212 89.4767 14.4553L98.5632 6.3633C101.061 4.13912 105.023 5.77978 105.217 9.1185L105.923 21.2686C106.076 23.9191 108.723 25.6869 111.23 24.8145L122.724 20.8159C125.882 19.717 128.915 22.7494 127.816 25.9082L123.817 37.4017C122.945 39.9092 124.713 42.5553 127.363 42.7093L139.513 43.4151C142.852 43.6091 144.493 47.5711 142.268 50.0686L134.176 59.1551C132.411 61.138 133.031 64.2596 135.422 65.416L146.374 70.7152C149.384 72.1717 149.384 76.46 146.374 77.9165L135.422 83.2157C133.031 84.3721 132.411 87.4937 134.176 89.4766L142.268 98.5631C144.493 101.061 142.852 105.023 139.513 105.217L127.363 105.922C124.713 106.076 122.945 108.722 123.817 111.23L127.816 122.724C128.915 125.882 125.882 128.915 122.724 127.816L111.23 123.817C108.723 122.945 106.076 124.713 105.923 127.363L105.217 139.513C105.023 142.852 101.061 144.493 98.5632 142.268L89.4767 134.176C87.4937 132.411 84.3722 133.031 83.2157 135.421L77.9166 146.374C76.46 149.384 72.1718 149.384 70.7152 146.374L65.4161 135.421C64.2596 133.031 61.1381 132.411 59.1552 134.176L50.0687 142.268C47.5711 144.493 43.6091 142.852 43.4152 139.513L42.7093 127.363C42.5553 124.713 39.9093 122.945 37.4017 123.817L25.9082 127.816C22.7495 128.915 19.7171 125.882 20.816 122.724L24.8146 111.23C25.687 108.722 23.9192 106.076 21.2687 105.922L9.11857 105.217C5.77984 105.023 4.13919 101.061 6.36337 98.5631L14.4553 89.4766C16.2212 87.4937 15.6005 84.3721 13.2103 83.2157L2.25792 77.9165C-0.752566 76.46 -0.752573 72.1717 2.25791 70.7152L13.2103 65.416C15.6005 64.2596 16.2212 61.138 14.4553 59.1551L6.36338 50.0686C4.1392 47.5711 5.77984 43.6091 9.11856 43.4151L21.2687 42.7093C23.9192 42.5553 25.687 39.9092 24.8146 37.4017L20.816 25.9082C19.7171 22.7494 22.7495 19.717 25.9082 20.8159L37.4017 24.8145C39.9093 25.6869 42.5553 23.9191 42.7093 21.2686L43.4152 9.11851C43.6091 5.77978 47.5711 4.13913 50.0687 6.36331L59.1552 14.4553C61.1381 16.2212 64.2596 15.6004 65.4161 13.2102L70.7152 2.25786Z" fill="#FCE794"/>
</svg>
