<svg width="228" height="228" viewBox="0 0 228 228" fill="none" xmlns="http://www.w3.org/2000/svg">
<path d="M110.215 2.25791C111.672 -0.752578 115.96 -0.752573 117.417 2.25791L128.284 24.7181C129.44 27.1082 132.562 27.729 134.544 25.9631L153.178 9.36895C155.676 7.14477 159.638 8.78542 159.832 12.1241L161.279 37.0381C161.433 39.6886 164.079 41.4564 166.587 40.584L190.155 32.3845C193.314 31.2855 196.346 34.3179 195.247 37.4767L187.048 61.0452C186.175 63.5528 187.943 66.1989 190.594 66.3529L215.508 67.8002C218.846 67.9942 220.487 71.9561 218.263 74.4537L201.669 93.0873C199.903 95.0703 200.524 98.1918 202.914 99.3482L225.374 110.215C228.384 111.672 228.384 115.96 225.374 117.417L202.914 128.284C200.524 129.44 199.903 132.562 201.669 134.544L218.263 153.178C220.487 155.676 218.846 159.638 215.508 159.832L190.594 161.279C187.943 161.433 186.175 164.079 187.048 166.587L195.247 190.155C196.346 193.314 193.314 196.346 190.155 195.247L166.587 187.048C164.079 186.175 161.433 187.943 161.279 190.594L159.832 215.508C159.638 218.846 155.676 220.487 153.178 218.263L134.544 201.669C132.562 199.903 129.44 200.524 128.284 202.914L117.417 225.374C115.96 228.384 111.672 228.384 110.215 225.374L99.3482 202.914C98.1918 200.524 95.0703 199.903 93.0873 201.669L74.4537 218.263C71.9562 220.487 67.9942 218.846 67.8002 215.508L66.3529 190.594C66.1989 187.943 63.5528 186.175 61.0452 187.048L37.4767 195.247C34.3179 196.346 31.2855 193.314 32.3844 190.155L40.584 166.587C41.4564 164.079 39.6886 161.433 37.0381 161.279L12.1241 159.832C8.78542 159.638 7.14477 155.676 9.36895 153.178L25.9631 134.544C27.729 132.562 27.1082 129.44 24.7181 128.284L2.25791 117.417C-0.752578 115.96 -0.752573 111.672 2.25791 110.215L24.7181 99.3482C27.1082 98.1918 27.729 95.0703 25.9631 93.0873L9.36895 74.4537C7.14477 71.9561 8.78542 67.9942 12.1241 67.8002L37.0381 66.3529C39.6886 66.1989 41.4564 63.5528 40.584 61.0452L32.3845 37.4767C31.2855 34.3179 34.3179 31.2855 37.4767 32.3844L61.0452 40.584C63.5528 41.4564 66.1989 39.6886 66.3529 37.0381L67.8002 12.1241C67.9942 8.78542 71.9561 7.14477 74.4537 9.36895L93.0873 25.9631C95.0703 27.729 98.1918 27.1082 99.3483 24.7181L110.215 2.25791Z" fill="#DF8035"/>
</svg>
